<?xml version="1.0" encoding="UTF-8"?><svg id="Layer_1" xmlns="http://www.w3.org/2000/svg" viewBox="0 0 120 64"><defs><style>.cls-1{fill:#003343;stroke-width:0px;}</style></defs><path class="cls-1" d="M.48,63.52c-.27,0-.49-.22-.48-.5l.04-1.8c0-.27.24-.49.5-.48l5.39.13-5.29-6.01c-.1-.09-.2-.21-.2-.39l.05-2.13c0-.39.44-.58.75-.31l5.49,6.28,7.69-6.34c.27-.2.72-.02.71.39v2.29c0,.2-.09.32-.15.36l-7.47,5.9,6.4-.1c.26,0,.49.24.48.5l-.04,1.8c0,.29-.24.49-.5.48l-13.37-.07Z"/><path class="cls-1" d="M2.31,45.02c-.2-.06-.32-.28-.27-.48l.53-1.83c.06-.2.28-.32.48-.27l13.02,3.77c.2.06.32.28.27.48l-.53,1.83c-.06.2-.28.32-.48.27l-13.02-3.77Z"/><path class="cls-1" d="M14.61,31.93c.56-.93.23-2.22-.75-2.81-.93-.56-2.19-.21-2.75.72l-1.72,2.86,3.5,2.09,1.72-2.86ZM6.25,33.94c-.18-.11-.25-.34-.13-.54l3.01-5.02c1.26-2.11,3.98-2.82,6.07-1.57,1.62.97,2.29,2.83,1.99,4.73l5.9.27c.3.01.51.31.33.6l-1.11,1.84c-.09.16-.23.19-.33.19l-6.06-.45-1.17,1.95,4.48,2.68c.17.11.24.36.13.53l-.97,1.62c-.12.19-.36.24-.53.13l-11.63-6.97Z"/><path class="cls-1" d="M26.27,18.74c.83-.7.94-2.03.2-2.9-.7-.83-2-.91-2.83-.21l-2.55,2.16,2.63,3.11,2.55-2.16ZM17.71,17.95c-.13-.16-.13-.4.05-.55l4.47-3.78c1.88-1.59,4.68-1.38,6.25.48,1.22,1.44,1.26,3.42.36,5.12l5.5,2.16c.28.11.38.45.12.68l-1.64,1.39c-.14.12-.29.11-.37.07l-5.58-2.38-1.73,1.47,3.37,3.99c.13.16.11.42-.05.55l-1.44,1.22c-.17.15-.42.11-.55-.05l-8.76-10.34Z"/><path class="cls-1" d="M33.13,7.02c-.09-.18,0-.43.18-.52l1.72-.82c.18-.09.43,0,.52.18l5.84,12.23c.09.18,0,.43-.18.52l-1.72.82c-.19.09-.43,0-.52-.18l-5.84-12.23Z"/><path class="cls-1" d="M44.22,2.2c-.03-.2.12-.39.32-.43l.5-.09,9.88,7.54h.02s-1.38-8.35-1.38-8.35c-.03-.2.1-.41.32-.45l1.86-.31c.2-.03.41.12.45.32l2.25,13.6c.03.2-.12.39-.32.43l-.48.08-9.98-7.87h-.02s1.44,8.69,1.44,8.69c.03.2-.1.41-.32.45l-1.84.3c-.2.03-.41-.12-.45-.32l-2.25-13.6Z"/><path class="cls-1" d="M74.61,2.29c.06-.19.27-.32.49-.25l7.93,2.55c.21.07.31.29.25.49l-.51,1.6c-.06.19-.27.32-.49.25l-5.77-1.85-1.18,3.66,4.82,1.55c.19.06.31.3.25.49l-.51,1.6c-.06.2-.3.32-.49.25l-4.82-1.55-1.59,4.93c-.06.2-.29.31-.49.25l-1.79-.58c-.22-.07-.31-.29-.25-.49l4.15-12.91Z"/><path class="cls-1" d="M89.96,8.63c.11-.17.36-.24.53-.13l1.63.99c.17.11.23.36.13.53l-7.06,11.58c-.11.17-.36.24-.54.13l-1.63-.99c-.17-.11-.24-.36-.13-.54l7.06-11.58Z"/><path class="cls-1" d="M100.01,15.26c.15-.14.4-.11.53.04l.35.38-.87,12.4h.01s6.22-5.72,6.22-5.72c.15-.14.4-.14.55.02l1.28,1.38c.14.15.13.41-.02.55l-10.13,9.35c-.15.14-.4.11-.54-.04l-.33-.36,1.1-12.66h-.01s-6.47,5.96-6.47,5.96c-.15.14-.4.14-.55-.02l-1.26-1.37c-.14-.15-.13-.41.02-.55l10.13-9.35Z"/><path class="cls-1" d="M116.51,38.56c.78,1.91.74,3.55.11,5.31-.08.23-.31.33-.52.24l-1.67-.67c-.21-.07-.28-.26-.19-.47.38-1.08.36-2.31-.08-3.37-.99-2.43-3.76-3.39-6.14-2.42-2.37.97-3.63,3.61-2.64,6.04.47,1.14,1.3,1.92,2.27,2.45.19.1.26.31.19.47l-.73,1.67c-.07.21-.33.27-.52.19-1.78-.78-3.03-2.17-3.72-3.85-1.55-3.79.21-8.07,4-9.62,3.79-1.55,8.09.25,9.64,4.04"/><path class="cls-1" d="M119.19,51.9c.2,0,.4.18.4.38l.07,1.9c0,.23-.16.42-.37.43h-5.43l.25,6.59h5.42c.2,0,.4.13.4.36l.07,1.88c0,.21-.17.43-.37.43h-13.54c-.2,0-.4-.2-.4-.4l-.07-1.88c0-.22.17-.38.37-.39h5.65s-.24-6.59-.24-6.59h-5.59c-.21,0-.4-.15-.4-.37v-1.93c0-.21.17-.4.37-.41h13.42Z"/><path class="cls-1" d="M47.84,32.56v-.31c0-.07.07-.12.17-.12h5.65c.1,0,.17.05.17.12v.31c0,.06-.07.11-.17.11h-5.65c-.1,0-.17-.05-.17-.11"/><path class="cls-1" d="M41.43,24.74c0-.12.09-.22.22-.22h4.61c.13,0,.22.1.22.22v.34c0,.12-.09.22-.22.22h-3.93v2.85h3.36c.12,0,.22.11.22.22v.34c0,.13-.1.22-.22.22h-3.36v2.98h3.93c.13,0,.22.1.22.22v.34c0,.12-.09.22-.22.22h-4.61c-.13,0-.22-.1-.22-.22v-7.74Z"/><path class="cls-1" d="M47.38,28.86s.07-.1.11-.14c.07-.1.16-.16.26-.07.05.04.59.56,1.26.56.6,0,.99-.38.99-.82,0-.51-.45-.82-1.3-1.17-.82-.36-1.31-.69-1.31-1.54,0-.5.4-1.32,1.58-1.32.73,0,1.27.38,1.27.38.05.02.13.11.05.25-.03.04-.06.1-.09.14-.07.1-.14.13-.26.07-.05-.03-.52-.34-.97-.34-.79,0-1.03.51-1.03.82,0,.5.38.79,1,1.05,1,.41,1.65.79,1.65,1.65,0,.77-.74,1.34-1.6,1.34s-1.47-.51-1.57-.6c-.06-.05-.13-.11-.04-.25"/><path class="cls-1" d="M52.28,24.87h-1.29c-.08,0-.14-.07-.14-.14v-.22c0-.07.06-.14.14-.14h3.15c.08,0,.14.07.14.14v.22c0,.08-.06.14-.14.14h-1.29v4.56c0,.07-.07.14-.14.14h-.28c-.07,0-.14-.07-.14-.14v-4.56Z"/><path class="cls-1" d="M58.27,32.14c.96-1.03,1.91-2.07,2.87-3.1.8-.86,1.18-1.57,1.18-2.12,0-.67-.43-1.49-1.64-1.49-.72,0-1.3.49-1.66.88-.09.09-.22.09-.31,0l-.23-.22c-.07-.08-.09-.21-.01-.3,0,0,.83-1.15,2.22-1.15,1.67,0,2.53,1.07,2.53,2.26,0,1.03-.65,1.79-1.46,2.65-.75.79-1.5,1.6-2.24,2.4h3.44c.12,0,.22.11.22.22v.32c0,.12-.11.22-.22.22h-4.45c-.13,0-.22-.1-.22-.22v-.35Z"/><path class="cls-1" d="M69.36,28.61c0-2.12-.73-3.34-2.01-3.34s-2.01,1.22-2.01,3.34.73,3.33,2.01,3.33,2.01-1.19,2.01-3.33M64.51,28.61c0-2.56,1.03-4.1,2.84-4.1s2.84,1.53,2.84,4.1-1.03,4.09-2.84,4.09-2.84-1.53-2.84-4.09"/><path class="cls-1" d="M72.59,26.2l-.84.65c-.09.07-.19.08-.27-.01l-.22-.25c-.08-.09-.04-.2.02-.26l1.64-1.59h.32c.12,0,.21.11.21.22v7.51c0,.12-.09.22-.21.22h-.42c-.13,0-.22-.1-.22-.22v-6.28Z"/><path class="cls-1" d="M75.22,31.34c.09-.08.18-.18.27-.26.11-.09.2-.12.29.01.12.16.68.86,1.73.86,1.12,0,1.84-.99,1.84-1.92s-.58-1.69-1.84-1.69h-1.78c-.23,0-.36-.22-.36-.41v-3.09c0-.12.09-.22.22-.22h3.53c.13,0,.22.1.22.22v.34c0,.12-.09.22-.22.22h-2.97v2.15h1.36c1.77,0,2.7.92,2.7,2.46s-1.14,2.68-2.71,2.68c-1.3,0-1.97-.62-2.26-.97-.15-.18-.16-.26-.02-.4"/><path class="cls-1" d="M52.81,44.41h2.12c1.51,0,2.74,1.23,2.74,2.74v2.05c0,1.51-1.23,2.74-2.74,2.74h-2.12c-1.51,0-2.74-1.23-2.74-2.74v-2.05c0-1.51,1.23-2.74,2.74-2.74Z" transform="translate(-18.29 52.19) rotate(-44.99)"/><path class="cls-1" d="M65.44,44.41h2.12c1.51,0,2.74,1.23,2.74,2.74v2.05c0,1.51-1.23,2.73-2.73,2.73h-2.12c-1.51,0-2.74-1.23-2.74-2.74v-2.05c0-1.51,1.23-2.74,2.74-2.74Z" transform="translate(-14.59 61.13) rotate(-44.99)"/><path class="cls-1" d="M52.81,55.64h2.12c1.51,0,2.74,1.23,2.74,2.74v2.05c0,1.51-1.23,2.74-2.74,2.74h-2.12c-1.51,0-2.74-1.23-2.74-2.74v-2.05c0-1.51,1.23-2.74,2.74-2.74Z" transform="translate(-26.23 55.48) rotate(-44.99)"/><path class="cls-1" d="M65.44,55.64h2.12c1.51,0,2.74,1.23,2.74,2.74v2.05c0,1.51-1.23,2.74-2.74,2.74h-2.12c-1.51,0-2.74-1.23-2.74-2.74v-2.05c0-1.51,1.23-2.74,2.74-2.74Z" transform="translate(-22.53 64.42) rotate(-44.99)"/></svg>