<?xml version="1.0" encoding="utf-8"?>
<!-- Generator: Adobe Illustrator 19.2.1, SVG Export Plug-In . SVG Version: 6.00 Build 0)  -->
<svg version="1.0" id="Layer_1" xmlns="http://www.w3.org/2000/svg" xmlns:xlink="http://www.w3.org/1999/xlink" x="0px" y="0px"
	 viewBox="0 0 170 58" style="enable-background:new 0 0 170 58;" xml:space="preserve">
<style type="text/css">
	.st0{fill:#231F20;}
</style>
<g>
	<g>
		<g>
			<polygon class="st0" points="61.3,17.1 74.8,17.1 74.8,12.8 61.3,12.8 61.3,5.2 76.3,5.2 76.3,0.7 56.5,0.7 56.5,29.3 76.8,29.3 
				76.8,24.8 61.3,24.8 			"/>
			<path class="st0" d="M117.1,15.8c-1.5-1.3-3.6-2.2-6.5-2.9c-2.9-0.7-4.8-1.4-5.7-1.9c-0.9-0.6-1.3-1.5-1.3-2.6s0.4-2,1.3-2.5
				s2-0.8,3.4-0.8c1.4,0,2.8,0.2,4.2,0.7c1.4,0.5,2.5,1.1,3.4,1.8l2.6-3.6c-1.3-1.1-2.8-1.9-4.6-2.5c-1.8-0.6-3.6-0.9-5.4-0.9
				c-2.8,0-5.1,0.7-7,2.1c-1.9,1.4-2.8,3.4-2.8,6s0.8,4.5,2.5,5.8c0.8,0.7,1.8,1.2,2.9,1.6s2.6,0.9,4.7,1.4c2.1,0.5,3.5,1,4.4,1.7
				s1.3,1.5,1.3,2.5s-0.5,2-1.4,2.6c-0.9,0.7-2.1,1-3.6,1c-3.1,0-6-1.2-8.9-3.7l-3,3.6c3.4,3,7.3,4.6,11.7,4.6c3,0,5.4-0.8,7.3-2.3
				c1.8-1.5,2.8-3.5,2.8-6C119.3,18.9,118.6,17.1,117.1,15.8z"/>
			<path class="st0" d="M165.9,4.6c-2.7-2.7-6.1-4.1-10.2-4.1c-4,0-7.4,1.4-10.2,4.1c-2.7,2.7-4.1,6.1-4.1,10.2s1.4,7.5,4.1,10.2
				c2.7,2.7,6.1,4.1,10.2,4.1c4,0,7.4-1.4,10.2-4.1c2.7-2.7,4.1-6.1,4.1-10.2S168.6,7.3,165.9,4.6z M162.5,21.9
				c-1.8,2-4.1,2.9-6.8,2.9s-5-1-6.8-2.9c-1.8-2-2.8-4.3-2.8-7.1s0.9-5.2,2.8-7.1c1.8-2,4.1-2.9,6.8-2.9s5,1,6.8,2.9
				s2.8,4.3,2.8,7.1S164.4,20,162.5,21.9z"/>
			<path class="st0" d="M15.9,12.6L4.8,0.8H0v28.6h4.8l11.1-11.8l11.1,11.8h4.8V0.8h-4.8L15.9,12.6z M4.8,24.3V5.8l8.8,9.3L4.8,24.3
				z M27.1,24.3l-8.8-9.3l8.8-9.3V24.3z"/>
		</g>
	</g>
	<g>
		<path d="M59.9,54.1h1.5v2.4c-0.7,0.7-1.6,1.1-2.7,1.1c-1,0-1.8-0.3-2.5-1c-0.7-0.7-1-1.5-1-2.5c0-1,0.3-1.8,1-2.5
			c0.7-0.7,1.5-1,2.5-1c0.9,0,1.8,0.3,2.5,0.9l-0.8,1.1c-0.3-0.3-0.6-0.4-0.8-0.5C59.3,52,59,52,58.7,52c-0.6,0-1,0.2-1.4,0.6
			c-0.4,0.4-0.6,0.9-0.6,1.5c0,0.6,0.2,1.1,0.6,1.5c0.4,0.4,0.8,0.6,1.3,0.6c0.5,0,0.9-0.1,1.3-0.3V54.1z"/>
		<path d="M74.4,56.5c-0.7,0.7-1.5,1-2.5,1s-1.8-0.3-2.5-1c-0.7-0.7-1-1.5-1-2.5s0.3-1.8,1-2.5c0.7-0.7,1.5-1,2.5-1s1.8,0.3,2.5,1
			c0.7,0.7,1,1.5,1,2.5C75.4,55.1,75.1,55.9,74.4,56.5z M73.9,54.1c0-0.6-0.2-1.1-0.6-1.5c-0.4-0.4-0.9-0.6-1.4-0.6
			c-0.6,0-1,0.2-1.4,0.6c-0.4,0.4-0.6,0.9-0.6,1.5c0,0.6,0.2,1.1,0.6,1.5c0.4,0.4,0.8,0.6,1.4,0.6c0.6,0,1-0.2,1.4-0.6
			C73.7,55.2,73.9,54.7,73.9,54.1z"/>
		<path d="M88.3,56.5c-0.7,0.7-1.5,1-2.5,1s-1.8-0.3-2.5-1c-0.7-0.7-1-1.5-1-2.5s0.3-1.8,1-2.5c0.7-0.7,1.5-1,2.5-1s1.8,0.3,2.5,1
			c0.7,0.7,1,1.5,1,2.5C89.3,55.1,89,55.9,88.3,56.5z M87.8,54.1c0-0.6-0.2-1.1-0.6-1.5c-0.4-0.4-0.8-0.6-1.4-0.6s-1,0.2-1.4,0.6
			c-0.4,0.4-0.6,0.9-0.6,1.5c0,0.6,0.2,1.1,0.6,1.5c0.4,0.4,0.8,0.6,1.4,0.6s1-0.2,1.4-0.6C87.6,55.2,87.8,54.7,87.8,54.1z"/>
		<path d="M101.7,51.7c0.6,0.6,0.9,1.4,0.9,2.4c0,1-0.3,1.8-0.9,2.5c-0.6,0.6-1.6,0.9-2.8,0.9h-2.3v-6.6H99
			C100.2,50.8,101.1,51.1,101.7,51.7z M100.6,55.6c0.4-0.3,0.5-0.8,0.5-1.5c0-0.7-0.2-1.2-0.5-1.5c-0.4-0.3-0.9-0.5-1.7-0.5h-0.8v4
			h0.9C99.7,56.1,100.3,56,100.6,55.6z"/>
		<path d="M111.5,52.1c-0.1,0.1-0.2,0.3-0.2,0.5s0.1,0.3,0.3,0.5s0.6,0.2,1.2,0.4c0.6,0.1,1.1,0.4,1.5,0.7c0.3,0.3,0.5,0.8,0.5,1.4
			s-0.2,1.1-0.7,1.5c-0.4,0.4-1,0.6-1.8,0.6c-1,0-2-0.4-2.8-1.2l0.9-1.1c0.7,0.6,1.4,0.9,2,0.9c0.3,0,0.5,0,0.6-0.2
			c0.1-0.1,0.2-0.3,0.2-0.5c0-0.2-0.1-0.4-0.2-0.5c-0.2-0.1-0.5-0.2-1-0.4c-0.8-0.2-1.3-0.4-1.7-0.7c-0.4-0.3-0.5-0.8-0.5-1.4
			c0-0.6,0.2-1.1,0.7-1.5c0.5-0.3,1-0.5,1.7-0.5c0.4,0,0.9,0.1,1.3,0.2c0.4,0.1,0.8,0.4,1.2,0.7l-0.8,1.1c-0.6-0.4-1.2-0.7-1.8-0.7
			C111.9,52,111.7,52,111.5,52.1z"/>
	</g>
</g>
</svg>
